<svg viewBox="0 0 91 91" xmlns="http://www.w3.org/2000/svg" class="absolute top-0 left-0 z-0 w-32 h-32 -mt-12 -ml-12 text-blue-300 fill-current">
  <g stroke="none" stroke-width="1" fill-rule="evenodd">
    <g fill="#3B82F6" fill-rule="nonzero">
      <g>
        <g>
          <circle cx="3.261" cy="3.445" r="2.72"></circle>
          <circle cx="15.296" cy="3.445" r="2.719"></circle>
          <circle cx="27.333" cy="3.445" r="2.72"></circle>
          <circle cx="39.369" cy="3.445" r="2.72"></circle>
          <circle cx="51.405" cy="3.445" r="2.72"></circle>
          <circle cx="63.441" cy="3.445" r="2.72"></circle>
          <circle cx="75.479" cy="3.445" r="2.72"></circle>
          <circle cx="87.514" cy="3.445" r="2.719"></circle>
        </g>
        <g transform="translate(0 12)">
          <circle cx="3.261" cy="3.525" r="2.72"></circle>
          <circle cx="15.296" cy="3.525" r="2.719"></circle>
          <circle cx="27.333" cy="3.525" r="2.72"></circle>
          <circle cx="39.369" cy="3.525" r="2.72"></circle>
          <circle cx="51.405" cy="3.525" r="2.72"></circle>
          <circle cx="63.441" cy="3.525" r="2.72"></circle>
          <circle cx="75.479" cy="3.525" r="2.72"></circle>
          <circle cx="87.514" cy="3.525" r="2.719"></circle>
        </g>
        <g transform="translate(0 24)">
          <circle cx="3.261" cy="3.605" r="2.72"></circle>
          <circle cx="15.296" cy="3.605" r="2.719"></circle>
          <circle cx="27.333" cy="3.605" r="2.72"></circle>
          <circle cx="39.369" cy="3.605" r="2.72"></circle>
          <circle cx="51.405" cy="3.605" r="2.72"></circle>
          <circle cx="63.441" cy="3.605" r="2.72"></circle>
          <circle cx="75.479" cy="3.605" r="2.72"></circle>
          <circle cx="87.514" cy="3.605" r="2.719"></circle>
        </g>
        <g transform="translate(0 36)">
          <circle cx="3.261" cy="3.686" r="2.72"></circle>
          <circle cx="15.296" cy="3.686" r="2.719"></circle>
          <circle cx="27.333" cy="3.686" r="2.72"></circle>
          <circle cx="39.369" cy="3.686" r="2.72"></circle>
          <circle cx="51.405" cy="3.686" r="2.72"></circle>
          <circle cx="63.441" cy="3.686" r="2.72"></circle>
          <circle cx="75.479" cy="3.686" r="2.72"></circle>
          <circle cx="87.514" cy="3.686" r="2.719"></circle>
        </g>
        <g transform="translate(0 49)">
          <circle cx="3.261" cy="2.767" r="2.72"></circle>
          <circle cx="15.296" cy="2.767" r="2.719"></circle>
          <circle cx="27.333" cy="2.767" r="2.72"></circle>
          <circle cx="39.369" cy="2.767" r="2.72"></circle>
          <circle cx="51.405" cy="2.767" r="2.72"></circle>
          <circle cx="63.441" cy="2.767" r="2.72"></circle>
          <circle cx="75.479" cy="2.767" r="2.72"></circle>
          <circle cx="87.514" cy="2.767" r="2.719"></circle>
        </g>
        <g transform="translate(0 61)">
          <circle cx="3.261" cy="2.846" r="2.72"></circle>
          <circle cx="15.296" cy="2.846" r="2.719"></circle>
          <circle cx="27.333" cy="2.846" r="2.72"></circle>
          <circle cx="39.369" cy="2.846" r="2.72"></circle>
          <circle cx="51.405" cy="2.846" r="2.72"></circle>
          <circle cx="63.441" cy="2.846" r="2.72"></circle>
          <circle cx="75.479" cy="2.846" r="2.72"></circle>
          <circle cx="87.514" cy="2.846" r="2.719"></circle>
        </g>
        <g transform="translate(0 73)">
          <circle cx="3.261" cy="2.926" r="2.72"></circle>
          <circle cx="15.296" cy="2.926" r="2.719"></circle>
          <circle cx="27.333" cy="2.926" r="2.72"></circle>
          <circle cx="39.369" cy="2.926" r="2.72"></circle>
          <circle cx="51.405" cy="2.926" r="2.72"></circle>
          <circle cx="63.441" cy="2.926" r="2.72"></circle>
          <circle cx="75.479" cy="2.926" r="2.72"></circle>
          <circle cx="87.514" cy="2.926" r="2.719"></circle>
        </g>
        <g transform="translate(0 85)">
          <circle cx="3.261" cy="3.006" r="2.72"></circle>
          <circle cx="15.296" cy="3.006" r="2.719"></circle>
          <circle cx="27.333" cy="3.006" r="2.72"></circle>
          <circle cx="39.369" cy="3.006" r="2.72"></circle>
          <circle cx="51.405" cy="3.006" r="2.72"></circle>
          <circle cx="63.441" cy="3.006" r="2.72"></circle>
          <circle cx="75.479" cy="3.006" r="2.72"></circle>
          <circle cx="87.514" cy="3.006" r="2.719"></circle>
        </g>
      </g>
    </g>
  </g>
</svg>
